<?xml version="1.0" encoding="utf-8"?>
<!-- Generator: Adobe Illustrator 18.0.0, SVG Export Plug-In . SVG Version: 6.00 Build 0)  -->
<svg version="1.2" baseProfile="tiny" id="图层_1"
	 xmlns="http://www.w3.org/2000/svg" xmlns:xlink="http://www.w3.org/1999/xlink" x="0px" y="0px" viewBox="85 373.6 834 892"
	 xml:space="preserve">
<g>
	<polygon points="406.3,1124.1 406.3,865.8 297.8,804.9 297.8,1063.4 191.3,1002.6 191.3,642.1 501.8,461.9 816.7,642.1 
		816.7,1000.3 504,1180.6 	"/>
	<polygon fill="#FFFFFF" points="784.1,987.3 501.8,1150.1 434.6,1111 434.6,850.6 269.6,757.2 269.6,1017.7 219.5,987.3 
		219.5,659.4 501.8,496.6 784.1,659.4 	"/>
	<path fill="#FFE14D" d="M784.1,659.4L501.9,822.2V1150l282.2-162.8V659.4z"/>
	<path fill="#FFC136" d="M219.5,659.4v327.8l49.9,30.5V757.2l165,93.3v260.6l67.3,39.1V822.3L219.5,659.4z"/>
</g>
</svg>
